<?xml version="1.0" encoding="UTF-8"?>
<svg version="1.1" xmlns="http://www.w3.org/2000/svg" width="50" height="50">
<path d="M0 0 C0.99 0 1.98 0 3 0 C3 0.66 3 1.32 3 2 C6.96 2 10.92 2 15 2 C15 1.34 15 0.68 15 0 C15.99 0 16.98 0 18 0 C18.12375 1.051875 18.12375 1.051875 18.25 2.125 C19.1684939 5.64589327 20.94831446 8.0217468 23 11 C23 11.66 23 12.32 23 13 C24.11375 12.95875 25.2275 12.9175 26.375 12.875 C30 13 30 13 32 15 C32.19948557 17.48566543 32.27989743 19.8575075 32.265625 22.34375 C32.26849518 23.43109436 32.26849518 23.43109436 32.27142334 24.54040527 C32.27278487 26.07365262 32.26909064 27.6069115 32.26074219 29.14013672 C32.25004178 31.49082259 32.26063808 33.84074423 32.2734375 36.19140625 C32.2721159 37.67968919 32.26955349 39.16797166 32.265625 40.65625 C32.26967346 41.36148804 32.27372192 42.06672607 32.27789307 42.79333496 C32.22992486 47.77007514 32.22992486 47.77007514 30 50 C26.875 50.125 26.875 50.125 24 50 C24 48.02 24 46.04 24 44 C23.01 44 22.02 44 21 44 C21 45.98 21 47.96 21 50 C19.02 50 17.04 50 15 50 C14.34 48.02 13.68 46.04 13 44 C10.36 44 7.72 44 5 44 C4.34 45.98 3.68 47.96 3 50 C1.02 50 -0.96 50 -3 50 C-3 48.02 -3 46.04 -3 44 C-4.11375 44.04125 -5.2275 44.0825 -6.375 44.125 C-10 44 -10 44 -12 42 C-12.19965373 39.37059804 -12.2798411 36.84879837 -12.265625 34.21875 C-12.26753845 33.44946167 -12.2694519 32.68017334 -12.27142334 31.88757324 C-12.27278508 30.2601692 -12.26908939 28.6327543 -12.26074219 27.00537109 C-12.25004221 24.50984369 -12.26063751 22.01503618 -12.2734375 19.51953125 C-12.2721159 17.94010257 -12.2695535 16.36067434 -12.265625 14.78125 C-12.26967346 14.0322644 -12.27372192 13.28327881 -12.27789307 12.51159668 C-12.22992243 7.22992243 -12.22992243 7.22992243 -10 5 C-7.6171875 4.5859375 -7.6171875 4.5859375 -4.875 4.375 C-3.96492187 4.30023437 -3.05484375 4.22546875 -2.1171875 4.1484375 C-1.06917969 4.07496094 -1.06917969 4.07496094 0 4 C0 2.68 0 1.36 0 0 Z M-1 10 C-1.33 10.99 -1.66 11.98 -2 13 C5.26 13 12.52 13 20 13 C17.24821463 7.98152867 17.24821463 7.98152867 13 5 C6.31424536 4.13732198 3.63395925 5.13999396 -1 10 Z M-9 8 C-9 9.32 -9 10.64 -9 12 C-7.68 12.33 -6.36 12.66 -5 13 C-4.34 11.02 -3.68 9.04 -3 7 C-6.7763932 6.7018576 -6.7763932 6.7018576 -9 8 Z M-10 15 C-10.08696177 18.93736123 -10.14037835 22.87447628 -10.1875 26.8125 C-10.21263672 27.93205078 -10.23777344 29.05160156 -10.26367188 30.20507812 C-10.27333984 31.27822266 -10.28300781 32.35136719 -10.29296875 33.45703125 C-10.3086792 34.44678955 -10.32438965 35.43654785 -10.34057617 36.45629883 C-10.19971018 39.02599255 -10.19971018 39.02599255 -8.6809082 40.8347168 C-6.17022759 42.57523656 -3.96703457 42.1978023 -1 42 C-0.01161567 39.9627797 0.96532252 37.92000393 1.9375 35.875 C2.75541016 34.16957031 2.75541016 34.16957031 3.58984375 32.4296875 C4.91100804 29.21644027 5.43981331 26.40149395 6 23 C6.66 22.67 7.32 22.34 8 22 C8 21.01 8 20.02 8 19 C8.66 19 9.32 19 10 19 C10 19.99 10 20.98 10 22 C10.66 22.33 11.32 22.66 12 23 C12.44257656 24.83839495 12.8802847 26.67810233 13.29296875 28.5234375 C14.63779536 33.23404562 16.87927428 37.59666111 19 42 C20.65 42 22.3 42 24 42 C24 35.07 24 28.14 24 21 C25.65 20.67 27.3 20.34 29 20 C29 18.68 29 17.36 29 16 C25.77396455 14.38698227 22.25289962 14.87946401 18.7109375 14.90234375 C17.89251373 14.9037587 17.07408997 14.90517365 16.23086548 14.90663147 C13.61220675 14.9122371 10.99363296 14.92479052 8.375 14.9375 C6.60156373 14.94251428 4.82812613 14.94707731 3.0546875 14.95117188 C-1.29690782 14.96220836 -5.6484395 14.97947675 -10 15 Z M26 23 C26 31.25 26 39.5 26 48 C26.99 47.67 27.98 47.34 29 47 C30.25248502 44.49502996 30.11374406 42.79146726 30.09765625 39.9921875 C30.09443359 39.00605469 30.09121094 38.01992188 30.08789062 37.00390625 C30.07951172 35.97136719 30.07113281 34.93882813 30.0625 33.875 C30.05573242 32.31458984 30.05573242 32.31458984 30.04882812 30.72265625 C30.03701952 28.14838038 30.02055075 25.57421854 30 23 C28.68 23 27.36 23 26 23 Z M8 25 C8 25.66 8 26.32 8 27 C8.66 27 9.32 27 10 27 C10 26.34 10 25.68 10 25 C9.34 25 8.68 25 8 25 Z M7 30 C6.67 31.32 6.34 32.64 6 34 C7.98 34 9.96 34 12 34 C11.67 32.68 11.34 31.36 11 30 C9.68 30 8.36 30 7 30 Z M5 34 C6 36 6 36 6 36 Z M12 34 C13 36 13 36 13 36 Z M8 37 C7.67 38.65 7.34 40.3 7 42 C8.32 42 9.64 42 11 42 C10.67 40.35 10.34 38.7 10 37 C9.34 37 8.68 37 8 37 Z M2 41 C3 43 3 43 3 43 Z M15 41 C16 43 16 43 16 43 Z M1 43 C2 45 2 45 2 45 Z M16 43 C17 45 17 45 17 45 Z M0 45 C1 47 1 47 1 47 Z M17 45 C18 47 18 47 18 47 Z " fill="#000000" transform="translate(16,0)"/>
<path d="M0 0 C0.99 0 1.98 0 3 0 C3 0.99 3 1.98 3 3 C2.01 3 1.02 3 0 3 C0 2.01 0 1.02 0 0 Z " fill="#000000" transform="translate(29,8)"/>
<path d="M0 0 C0.99 0 1.98 0 3 0 C3 0.99 3 1.98 3 3 C2.01 3 1.02 3 0 3 C0 2.01 0 1.02 0 0 Z " fill="#000000" transform="translate(18,8)"/>
</svg>
