<?xml version="1.0" encoding="UTF-8"?>
<svg version="1.1" xmlns="http://www.w3.org/2000/svg" width="50" height="50">
<path d="M0 0 C3.5 0.125 3.5 0.125 4.5 1.125 C4.54092937 3.45797433 4.54241723 5.79205225 4.5 8.125 C2.52 8.785 0.54 9.445 -1.5 10.125 C-1.5 12.765 -1.5 15.405 -1.5 18.125 C-0.51 18.455 0.48 18.785 1.5 19.125 C1.5 20.445 1.5 21.765 1.5 23.125 C-0.81 23.455 -3.12 23.785 -5.5 24.125 C-4.18 26.765 -2.86 29.405 -1.5 32.125 C-2.76158011 33.94395279 -4.03457906 35.7549902 -5.3125 37.5625 C-6.02019531 38.57183594 -6.72789063 39.58117188 -7.45703125 40.62109375 C-9.5 43.125 -9.5 43.125 -12.5 44.125 C-13.16 43.795 -13.82 43.465 -14.5 43.125 C-14.0317879 38.34923661 -13.25668002 35.08023655 -10.5 31.125 C-11.7065625 29.825625 -11.7065625 29.825625 -12.9375 28.5 C-15.52603473 25.44871046 -15.87319357 23.06492616 -16.5 19.125 C-18.43383287 17.82434079 -18.43383287 17.82434079 -20.5 17.125 C-20.83 16.465 -21.16 15.805 -21.5 15.125 C-20.45759826 13.61096405 -19.39024679 12.11408298 -18.3125 10.625 C-17.72082031 9.7896875 -17.12914062 8.954375 -16.51953125 8.09375 C-14.5 6.125 -14.5 6.125 -11.76171875 5.84375 C-11.01535156 5.9365625 -10.26898438 6.029375 -9.5 6.125 C-9.17 7.115 -8.84 8.105 -8.5 9.125 C-7.18 8.795 -5.86 8.465 -4.5 8.125 C-4.5309375 6.4234375 -4.5309375 6.4234375 -4.5625 4.6875 C-4.4830721 0.16010972 -4.4830721 0.16010972 0 0 Z M-10.5 18.125 C-9.5 22.125 -9.5 22.125 -9.5 22.125 Z " fill="#000000" transform="translate(34.5,2.875)"/>
<path d="M0 0 C0.99 0 1.98 0 3 0 C3 0.99 3 1.98 3 3 C3.66 3.33 4.32 3.66 5 4 C3.52307692 8.67692308 3.52307692 8.67692308 0.875 10.3125 C-0.053125 10.6528125 -0.053125 10.6528125 -1 11 C-1 10.01 -1 9.02 -1 8 C-1.99 8 -2.98 8 -4 8 C-3.40353695 4.65980694 -2.31705841 2.49529367 0 0 Z " fill="#000000" transform="translate(11,20)"/>
</svg>
